<svg width="29" height="40" viewBox="0 0 29 40" fill="none" xmlns="http://www.w3.org/2000/svg">
<g clip-path="url(#clip0_171_4422)">
<path d="M25.5 5.5V20C25.5 22.2 23.7 24 21.5 24H14.2C13.12 24 12.1 23.57 11.35 22.81L3.5 14.83C3.5 14.83 4.76 13.6 4.8 13.58C5.02 13.39 5.29 13.29 5.59 13.29C5.81 13.29 6.01 13.35 6.19 13.45C6.23 13.46 10.5 15.91 10.5 15.91V4C10.5 3.17 11.17 2.5 12 2.5C12.83 2.5 13.5 3.17 13.5 4V11H14.5V1.5C14.5 0.67 15.17 0 16 0C16.83 0 17.5 0.67 17.5 1.5V11H18.5V2.5C18.5 1.67 19.17 1 20 1C20.83 1 21.5 1.67 21.5 2.5V11H22.5V5.5C22.5 4.67 23.17 4 24 4C24.83 4 25.5 4.67 25.5 5.5Z" fill="#0A3323"/>
</g>
<path d="M4.44336 34.0605L3.35449 30.8916L2.19727 34.0605H4.44336ZM2.84668 29.8271H3.94531L6.54785 37H5.4834L4.75586 34.8516H1.91895L1.14258 37H0.146484L2.84668 29.8271ZM10.4053 31.7705H11.377C11.2533 32.1058 10.9782 32.8708 10.5518 34.0654C10.2327 34.9639 9.96582 35.6963 9.75098 36.2627C9.24316 37.5973 8.88509 38.4111 8.67676 38.7041C8.46842 38.9971 8.11035 39.1436 7.60254 39.1436C7.47884 39.1436 7.38281 39.1387 7.31445 39.1289C7.24935 39.1191 7.16797 39.1012 7.07031 39.0752V38.2744C7.22331 38.3167 7.33398 38.3428 7.40234 38.3525C7.4707 38.3623 7.53092 38.3672 7.58301 38.3672C7.74577 38.3672 7.86458 38.3395 7.93945 38.2842C8.01758 38.2321 8.08268 38.167 8.13477 38.0889C8.15104 38.0628 8.20964 37.9294 8.31055 37.6885C8.41146 37.4476 8.4847 37.2686 8.53027 37.1514L6.59668 31.7705H7.59277L8.99414 36.0283L10.4053 31.7705ZM13.0176 31.7705V35.2422C13.0176 35.5091 13.0599 35.7272 13.1445 35.8965C13.3008 36.209 13.5921 36.3652 14.0186 36.3652C14.6305 36.3652 15.0472 36.0918 15.2686 35.5449C15.389 35.252 15.4492 34.8499 15.4492 34.3389V31.7705H16.3281V37H15.498L15.5078 36.2285C15.3939 36.4271 15.2523 36.5947 15.083 36.7314C14.7477 37.0049 14.3408 37.1416 13.8623 37.1416C13.1169 37.1416 12.609 36.8926 12.3389 36.3945C12.1924 36.1276 12.1191 35.7712 12.1191 35.3252V31.7705H13.0176ZM18.2617 34.4463C18.2617 35.0062 18.3805 35.4749 18.6182 35.8525C18.8558 36.2301 19.2367 36.4189 19.7607 36.4189C20.1676 36.4189 20.5013 36.2448 20.7617 35.8965C21.0254 35.5449 21.1572 35.042 21.1572 34.3877C21.1572 33.7269 21.0221 33.2386 20.752 32.9229C20.4818 32.6038 20.1481 32.4443 19.751 32.4443C19.3083 32.4443 18.9486 32.6136 18.6719 32.9521C18.3984 33.2907 18.2617 33.7887 18.2617 34.4463ZM19.585 31.6777C19.9854 31.6777 20.3206 31.7624 20.5908 31.9316C20.7471 32.0293 20.9245 32.2002 21.123 32.4443V29.8027H21.9678V37H21.1768V36.2725C20.9717 36.5947 20.7292 36.8275 20.4492 36.9707C20.1693 37.1139 19.8486 37.1855 19.4873 37.1855C18.9046 37.1855 18.4001 36.9414 17.9736 36.4531C17.5472 35.9616 17.334 35.3089 17.334 34.4951C17.334 33.7334 17.5277 33.0742 17.915 32.5176C18.3057 31.9577 18.8623 31.6777 19.585 31.6777ZM23.9453 35.6084C23.9453 35.8623 24.0381 36.0625 24.2236 36.209C24.4092 36.3555 24.6289 36.4287 24.8828 36.4287C25.1921 36.4287 25.4915 36.3571 25.7812 36.2139C26.2695 35.9762 26.5137 35.5872 26.5137 35.0469V34.3389C26.4062 34.4072 26.2679 34.4642 26.0986 34.5098C25.9294 34.5553 25.7633 34.5879 25.6006 34.6074L25.0684 34.6758C24.7493 34.7181 24.5101 34.7848 24.3506 34.876C24.0804 35.029 23.9453 35.2731 23.9453 35.6084ZM26.0742 33.8311C26.276 33.805 26.4111 33.7204 26.4795 33.5771C26.5186 33.499 26.5381 33.3867 26.5381 33.2402C26.5381 32.9408 26.4307 32.7243 26.2158 32.5908C26.0042 32.4541 25.6999 32.3857 25.3027 32.3857C24.8438 32.3857 24.5182 32.5094 24.3262 32.7568C24.2188 32.8936 24.1488 33.097 24.1162 33.3672H23.2959C23.3122 32.7227 23.5205 32.2751 23.9209 32.0244C24.3245 31.7705 24.7917 31.6436 25.3223 31.6436C25.9375 31.6436 26.4372 31.7607 26.8213 31.9951C27.2021 32.2295 27.3926 32.5941 27.3926 33.0889V36.1016C27.3926 36.1927 27.4105 36.266 27.4463 36.3213C27.4854 36.3766 27.5651 36.4043 27.6855 36.4043C27.7246 36.4043 27.7686 36.4027 27.8174 36.3994C27.8662 36.3929 27.9183 36.3848 27.9736 36.375V37.0244C27.8369 37.0635 27.7327 37.0879 27.6611 37.0977C27.5895 37.1074 27.4919 37.1123 27.3682 37.1123C27.0654 37.1123 26.8457 37.0049 26.709 36.79C26.6374 36.6761 26.5869 36.515 26.5576 36.3066C26.3786 36.541 26.1214 36.7445 25.7861 36.917C25.4508 37.0895 25.0814 37.1758 24.6777 37.1758C24.1927 37.1758 23.7956 37.0293 23.4863 36.7363C23.1803 36.4401 23.0273 36.0706 23.0273 35.6279C23.0273 35.1429 23.1787 34.7669 23.4814 34.5C23.7842 34.2331 24.1813 34.0687 24.6729 34.0068L26.0742 33.8311Z" fill="#1D1D41"/>
<defs>
<clipPath id="clip0_171_4422">
<rect width="24" height="24" fill="white" transform="translate(2.5)"/>
</clipPath>
</defs>
</svg>
