<svg width="61" height="60" viewBox="0 0 61 60" fill="none" xmlns="http://www.w3.org/2000/svg">
<rect x="0.5" width="60" height="60" rx="10" fill="#F4F4F9"/>
<g clip-path="url(#clip0_171_4018)">
<path d="M41.5 23.5V38C41.5 40.2 39.7 42 37.5 42H30.2C29.12 42 28.1 41.57 27.35 40.81L19.5 32.83C19.5 32.83 20.76 31.6 20.8 31.58C21.02 31.39 21.29 31.29 21.59 31.29C21.81 31.29 22.01 31.35 22.19 31.45C22.23 31.46 26.5 33.91 26.5 33.91V22C26.5 21.17 27.17 20.5 28 20.5C28.83 20.5 29.5 21.17 29.5 22V29H30.5V19.5C30.5 18.67 31.17 18 32 18C32.83 18 33.5 18.67 33.5 19.5V29H34.5V20.5C34.5 19.67 35.17 19 36 19C36.83 19 37.5 19.67 37.5 20.5V29H38.5V23.5C38.5 22.67 39.17 22 40 22C40.83 22 41.5 22.67 41.5 23.5Z" fill="#FF864B"/>
</g>
<defs>
<clipPath id="clip0_171_4018">
<rect width="24" height="24" fill="white" transform="translate(18.5 18)"/>
</clipPath>
</defs>
</svg>
