<svg width="25" height="25" viewBox="0 0 25 25" fill="none" xmlns="http://www.w3.org/2000/svg">
<path fill-rule="evenodd" clip-rule="evenodd" d="M12.5 2.53125C6.99441 2.53125 2.53125 6.99441 2.53125 12.5C2.53125 18.0056 6.99441 22.4688 12.5 22.4688C18.0056 22.4688 22.4688 18.0056 22.4688 12.5C22.4688 6.99441 18.0056 2.53125 12.5 2.53125ZM0.71875 12.5C0.71875 5.9934 5.9934 0.71875 12.5 0.71875C19.0066 0.71875 24.2812 5.9934 24.2812 12.5C24.2812 19.0066 19.0066 24.2812 12.5 24.2812C5.9934 24.2812 0.71875 19.0066 0.71875 12.5Z" fill="#000022"/>
<path fill-rule="evenodd" clip-rule="evenodd" d="M16.7658 8.23418C17.1197 8.5881 17.1197 9.1619 16.7658 9.51582L9.51582 16.7658C9.1619 17.1197 8.5881 17.1197 8.23418 16.7658C7.88027 16.4119 7.88027 15.8381 8.23418 15.4842L15.4842 8.23418C15.8381 7.88027 16.4119 7.88027 16.7658 8.23418Z" fill="#000022"/>
<path fill-rule="evenodd" clip-rule="evenodd" d="M8.23418 8.23418C8.5881 7.88027 9.1619 7.88027 9.51582 8.23418L16.7658 15.4842C17.1197 15.8381 17.1197 16.4119 16.7658 16.7658C16.4119 17.1197 15.8381 17.1197 15.4842 16.7658L8.23418 9.51582C7.88027 9.1619 7.88027 8.5881 8.23418 8.23418Z" fill="#000022"/>
</svg>
