<svg width="22" height="28" viewBox="0 0 22 28" fill="none" xmlns="http://www.w3.org/2000/svg">
<path d="M11 15.3C13.0711 15.3 14.75 13.5539 14.75 11.4C14.75 9.24609 13.0711 7.5 11 7.5C8.92893 7.5 7.25 9.24609 7.25 11.4C7.25 13.5539 8.92893 15.3 11 15.3Z" fill="#FF864B" fill-opacity="0.54"/>
<path d="M11 27C16 21.8 21 17.1438 21 11.4C21 5.65624 16.5228 1 11 1C5.47715 1 1 5.65624 1 11.4C1 17.1438 6 21.8 11 27Z" fill="#FF864B" fill-opacity="0.54"/>
<path d="M11 15.3C13.0711 15.3 14.75 13.5539 14.75 11.4C14.75 9.24609 13.0711 7.5 11 7.5C8.92893 7.5 7.25 9.24609 7.25 11.4C7.25 13.5539 8.92893 15.3 11 15.3Z" stroke="#FF864B" stroke-opacity="0.97" stroke-width="2" stroke-linecap="round" stroke-linejoin="round"/>
<path d="M11 27C16 21.8 21 17.1438 21 11.4C21 5.65624 16.5228 1 11 1C5.47715 1 1 5.65624 1 11.4C1 17.1438 6 21.8 11 27Z" stroke="#FF864B" stroke-opacity="0.97" stroke-width="2" stroke-linecap="round" stroke-linejoin="round"/>
</svg>
