<svg width="37" height="39" viewBox="0 0 37 39" fill="none" xmlns="http://www.w3.org/2000/svg">
<g clip-path="url(#clip0_171_4419)">
<path d="M20.5 17H10.5V19H20.5V17ZM26.5 9H10.5V11H26.5V9ZM10.5 15H26.5V13H10.5V15ZM10.5 5V7H26.5V5H10.5Z" fill="#0A3323"/>
</g>
<path d="M0.786133 29.8271H1.76758V32.791H5.49805V29.8271H6.47949V37H5.49805V33.6455H1.76758V37H0.786133V29.8271ZM7.87109 31.7949H8.76465V37H7.87109V31.7949ZM7.87109 29.8271H8.76465V30.8232H7.87109V29.8271ZM10.6201 35.3594C10.6462 35.6523 10.7194 35.877 10.8398 36.0332C11.0612 36.3164 11.4453 36.458 11.9922 36.458C12.3177 36.458 12.6042 36.388 12.8516 36.248C13.099 36.1048 13.2227 35.8851 13.2227 35.5889C13.2227 35.3643 13.1234 35.1934 12.9248 35.0762C12.7979 35.0046 12.5472 34.9215 12.1729 34.8271L11.4746 34.6514C11.0286 34.5407 10.6999 34.417 10.4883 34.2803C10.1107 34.0426 9.92188 33.7139 9.92188 33.2939C9.92188 32.7992 10.0993 32.3988 10.4541 32.0928C10.8122 31.7868 11.2923 31.6338 11.8945 31.6338C12.6823 31.6338 13.2503 31.8649 13.5986 32.3271C13.8167 32.6201 13.9225 32.9359 13.916 33.2744H13.0859C13.0697 33.0758 12.9997 32.8952 12.876 32.7324C12.6742 32.5013 12.3242 32.3857 11.8262 32.3857C11.4941 32.3857 11.2419 32.4492 11.0693 32.5762C10.9001 32.7031 10.8154 32.8708 10.8154 33.0791C10.8154 33.307 10.9277 33.4893 11.1523 33.626C11.2826 33.7074 11.4746 33.779 11.7285 33.8408L12.3096 33.9824C12.9411 34.1354 13.3643 34.2835 13.5791 34.4268C13.9209 34.6514 14.0918 35.0046 14.0918 35.4863C14.0918 35.9518 13.9144 36.3538 13.5596 36.6924C13.208 37.0309 12.6709 37.2002 11.9482 37.2002C11.1702 37.2002 10.6185 37.0244 10.293 36.6729C9.9707 36.318 9.79818 35.8802 9.77539 35.3594H10.6201ZM15.2734 30.3105H16.1621V31.7705H16.9971V32.4883H16.1621V35.9014C16.1621 36.0837 16.224 36.2057 16.3477 36.2676C16.416 36.3034 16.5299 36.3213 16.6895 36.3213C16.7318 36.3213 16.7773 36.3213 16.8262 36.3213C16.875 36.318 16.932 36.3132 16.9971 36.3066V37C16.8962 37.0293 16.7904 37.0505 16.6797 37.0635C16.5723 37.0765 16.4551 37.083 16.3281 37.083C15.918 37.083 15.6396 36.9788 15.4932 36.7705C15.3467 36.5589 15.2734 36.2855 15.2734 35.9502V32.4883H14.5654V31.7705H15.2734V30.3105ZM19.9561 36.4336C20.5387 36.4336 20.9375 36.2139 21.1523 35.7744C21.3704 35.3317 21.4795 34.8402 21.4795 34.2998C21.4795 33.8115 21.4014 33.4144 21.2451 33.1084C20.9977 32.6266 20.5713 32.3857 19.9658 32.3857C19.4287 32.3857 19.0381 32.5908 18.7939 33.001C18.5498 33.4111 18.4277 33.9059 18.4277 34.4854C18.4277 35.042 18.5498 35.5059 18.7939 35.877C19.0381 36.248 19.4255 36.4336 19.9561 36.4336ZM19.9902 31.6191C20.6641 31.6191 21.2337 31.8438 21.6992 32.293C22.1647 32.7422 22.3975 33.403 22.3975 34.2754C22.3975 35.1185 22.1924 35.8151 21.7822 36.3652C21.3721 36.9154 20.7357 37.1904 19.873 37.1904C19.1536 37.1904 18.5824 36.9479 18.1592 36.4629C17.736 35.9746 17.5244 35.3203 17.5244 34.5C17.5244 33.6211 17.7474 32.9212 18.1934 32.4004C18.6393 31.8796 19.2383 31.6191 19.9902 31.6191ZM23.4717 31.7705H24.3066V32.6738C24.375 32.498 24.5426 32.2848 24.8096 32.0342C25.0765 31.7803 25.3841 31.6533 25.7324 31.6533C25.7487 31.6533 25.7764 31.6549 25.8154 31.6582C25.8545 31.6615 25.9212 31.668 26.0156 31.6777V32.6055C25.9635 32.5957 25.9147 32.5892 25.8691 32.5859C25.8268 32.5827 25.7796 32.5811 25.7275 32.5811C25.2848 32.5811 24.9447 32.7243 24.707 33.0107C24.4694 33.2939 24.3506 33.6211 24.3506 33.9922V37H23.4717V31.7705ZM26.7773 31.7949H27.6709V37H26.7773V31.7949ZM26.7773 29.8271H27.6709V30.8232H26.7773V29.8271ZM29.6777 35.6084C29.6777 35.8623 29.7705 36.0625 29.9561 36.209C30.1416 36.3555 30.3613 36.4287 30.6152 36.4287C30.9245 36.4287 31.224 36.3571 31.5137 36.2139C32.002 35.9762 32.2461 35.5872 32.2461 35.0469V34.3389C32.1387 34.4072 32.0003 34.4642 31.8311 34.5098C31.6618 34.5553 31.4958 34.5879 31.333 34.6074L30.8008 34.6758C30.4818 34.7181 30.2425 34.7848 30.083 34.876C29.8128 35.029 29.6777 35.2731 29.6777 35.6084ZM31.8066 33.8311C32.0085 33.805 32.1436 33.7204 32.2119 33.5771C32.251 33.499 32.2705 33.3867 32.2705 33.2402C32.2705 32.9408 32.1631 32.7243 31.9482 32.5908C31.7367 32.4541 31.4323 32.3857 31.0352 32.3857C30.5762 32.3857 30.2507 32.5094 30.0586 32.7568C29.9512 32.8936 29.8812 33.097 29.8486 33.3672H29.0283C29.0446 32.7227 29.2529 32.2751 29.6533 32.0244C30.057 31.7705 30.5241 31.6436 31.0547 31.6436C31.6699 31.6436 32.1696 31.7607 32.5537 31.9951C32.9346 32.2295 33.125 32.5941 33.125 33.0889V36.1016C33.125 36.1927 33.1429 36.266 33.1787 36.3213C33.2178 36.3766 33.2975 36.4043 33.418 36.4043C33.457 36.4043 33.501 36.4027 33.5498 36.3994C33.5986 36.3929 33.6507 36.3848 33.7061 36.375V37.0244C33.5693 37.0635 33.4652 37.0879 33.3936 37.0977C33.3219 37.1074 33.2243 37.1123 33.1006 37.1123C32.7979 37.1123 32.5781 37.0049 32.4414 36.79C32.3698 36.6761 32.3193 36.515 32.29 36.3066C32.111 36.541 31.8538 36.7445 31.5186 36.917C31.1833 37.0895 30.8138 37.1758 30.4102 37.1758C29.9251 37.1758 29.528 37.0293 29.2188 36.7363C28.9128 36.4401 28.7598 36.0706 28.7598 35.6279C28.7598 35.1429 28.9111 34.7669 29.2139 34.5C29.5166 34.2331 29.9137 34.0687 30.4053 34.0068L31.8066 33.8311ZM34.5947 29.8271H35.4736V37H34.5947V29.8271Z" fill="#1D1D41"/>
<defs>
<clipPath id="clip0_171_4419">
<rect width="24" height="24" fill="white" transform="translate(6.5)"/>
</clipPath>
</defs>
</svg>
