<svg width="27" height="40" viewBox="0 0 27 40" fill="none" xmlns="http://www.w3.org/2000/svg">
<path d="M10 14.6667C10 15.9553 11.0447 17 12.3333 17H14.5C15.8807 17 17 15.8807 17 14.5C17 13.1193 15.8807 12 14.5 12H12.5C11.1193 12 10 10.8807 10 9.5C10 8.11929 11.1193 7 12.5 7H14.6667C15.9553 7 17 8.04467 17 9.33333M13.5 5.5V7M13.5 17V18.5M23.5 12C23.5 17.5228 19.0228 22 13.5 22C7.97715 22 3.5 17.5228 3.5 12C3.5 6.47715 7.97715 2 13.5 2C19.0228 2 23.5 6.47715 23.5 12Z" stroke="#0A3323" stroke-width="2" stroke-linecap="round" stroke-linejoin="round"/>
<path d="M0.854492 29.8271H4.08203C4.72005 29.8271 5.23438 30.0078 5.625 30.3691C6.01562 30.7272 6.21094 31.2318 6.21094 31.8828C6.21094 32.4427 6.03678 32.931 5.68848 33.3477C5.34017 33.7611 4.80469 33.9678 4.08203 33.9678H1.82617V37H0.854492V29.8271ZM5.22949 31.8877C5.22949 31.3604 5.03418 31.0023 4.64355 30.8135C4.42871 30.7126 4.13411 30.6621 3.75977 30.6621H1.82617V33.1475H3.75977C4.19596 33.1475 4.54915 33.0547 4.81934 32.8691C5.09277 32.6836 5.22949 32.3564 5.22949 31.8877ZM7.98828 35.6084C7.98828 35.8623 8.08105 36.0625 8.2666 36.209C8.45215 36.3555 8.67188 36.4287 8.92578 36.4287C9.23503 36.4287 9.53451 36.3571 9.82422 36.2139C10.3125 35.9762 10.5566 35.5872 10.5566 35.0469V34.3389C10.4492 34.4072 10.3109 34.4642 10.1416 34.5098C9.97233 34.5553 9.80632 34.5879 9.64355 34.6074L9.11133 34.6758C8.79232 34.7181 8.55306 34.7848 8.39355 34.876C8.12337 35.029 7.98828 35.2731 7.98828 35.6084ZM10.1172 33.8311C10.319 33.805 10.4541 33.7204 10.5225 33.5771C10.5615 33.499 10.5811 33.3867 10.5811 33.2402C10.5811 32.9408 10.4736 32.7243 10.2588 32.5908C10.0472 32.4541 9.74284 32.3857 9.3457 32.3857C8.88672 32.3857 8.5612 32.5094 8.36914 32.7568C8.26172 32.8936 8.19173 33.097 8.15918 33.3672H7.33887C7.35514 32.7227 7.56348 32.2751 7.96387 32.0244C8.36751 31.7705 8.83464 31.6436 9.36523 31.6436C9.98047 31.6436 10.4801 31.7607 10.8643 31.9951C11.2451 32.2295 11.4355 32.5941 11.4355 33.0889V36.1016C11.4355 36.1927 11.4535 36.266 11.4893 36.3213C11.5283 36.3766 11.6081 36.4043 11.7285 36.4043C11.7676 36.4043 11.8115 36.4027 11.8604 36.3994C11.9092 36.3929 11.9613 36.3848 12.0166 36.375V37.0244C11.8799 37.0635 11.7757 37.0879 11.7041 37.0977C11.6325 37.1074 11.5348 37.1123 11.4111 37.1123C11.1084 37.1123 10.8887 37.0049 10.752 36.79C10.6803 36.6761 10.6299 36.515 10.6006 36.3066C10.4215 36.541 10.1644 36.7445 9.8291 36.917C9.49382 37.0895 9.12435 37.1758 8.7207 37.1758C8.23568 37.1758 7.83854 37.0293 7.5293 36.7363C7.22331 36.4401 7.07031 36.0706 7.07031 35.6279C7.07031 35.1429 7.22168 34.7669 7.52441 34.5C7.82715 34.2331 8.22428 34.0687 8.71582 34.0068L10.1172 33.8311ZM14.7266 31.6777C15.1367 31.6777 15.4948 31.7786 15.8008 31.9805C15.9668 32.0944 16.1361 32.2604 16.3086 32.4785V31.8193H17.1191V36.5752C17.1191 37.2393 17.0215 37.7633 16.8262 38.1475C16.4616 38.8571 15.7731 39.2119 14.7607 39.2119C14.1976 39.2119 13.724 39.085 13.3398 38.8311C12.9557 38.5804 12.7409 38.1865 12.6953 37.6494H13.5889C13.6312 37.8838 13.7158 38.0645 13.8428 38.1914C14.0413 38.3867 14.3538 38.4844 14.7803 38.4844C15.4541 38.4844 15.8952 38.2467 16.1035 37.7715C16.2272 37.4915 16.2842 36.9919 16.2744 36.2725C16.0986 36.5394 15.887 36.738 15.6396 36.8682C15.3923 36.9984 15.0651 37.0635 14.6582 37.0635C14.0918 37.0635 13.5954 36.8633 13.1689 36.4629C12.7458 36.0592 12.5342 35.3936 12.5342 34.4658C12.5342 33.5902 12.7474 32.9066 13.1738 32.415C13.6035 31.9235 14.1211 31.6777 14.7266 31.6777ZM16.3086 34.3633C16.3086 33.7155 16.1751 33.2354 15.9082 32.9229C15.6413 32.6104 15.3011 32.4541 14.8877 32.4541C14.2692 32.4541 13.846 32.7438 13.6182 33.3232C13.4977 33.6325 13.4375 34.0378 13.4375 34.5391C13.4375 35.1283 13.5563 35.5775 13.7939 35.8867C14.0348 36.1927 14.3571 36.3457 14.7607 36.3457C15.3923 36.3457 15.8366 36.0609 16.0938 35.4912C16.237 35.1689 16.3086 34.793 16.3086 34.3633ZM19.1211 35.6084C19.1211 35.8623 19.2139 36.0625 19.3994 36.209C19.585 36.3555 19.8047 36.4287 20.0586 36.4287C20.3678 36.4287 20.6673 36.3571 20.957 36.2139C21.4453 35.9762 21.6895 35.5872 21.6895 35.0469V34.3389C21.582 34.4072 21.4437 34.4642 21.2744 34.5098C21.1051 34.5553 20.9391 34.5879 20.7764 34.6074L20.2441 34.6758C19.9251 34.7181 19.6859 34.7848 19.5264 34.876C19.2562 35.029 19.1211 35.2731 19.1211 35.6084ZM21.25 33.8311C21.4518 33.805 21.5869 33.7204 21.6553 33.5771C21.6943 33.499 21.7139 33.3867 21.7139 33.2402C21.7139 32.9408 21.6064 32.7243 21.3916 32.5908C21.18 32.4541 20.8757 32.3857 20.4785 32.3857C20.0195 32.3857 19.694 32.5094 19.502 32.7568C19.3945 32.8936 19.3245 33.097 19.292 33.3672H18.4717C18.488 32.7227 18.6963 32.2751 19.0967 32.0244C19.5003 31.7705 19.9674 31.6436 20.498 31.6436C21.1133 31.6436 21.613 31.7607 21.9971 31.9951C22.3779 32.2295 22.5684 32.5941 22.5684 33.0889V36.1016C22.5684 36.1927 22.5863 36.266 22.6221 36.3213C22.6611 36.3766 22.7409 36.4043 22.8613 36.4043C22.9004 36.4043 22.9443 36.4027 22.9932 36.3994C23.042 36.3929 23.0941 36.3848 23.1494 36.375V37.0244C23.0127 37.0635 22.9085 37.0879 22.8369 37.0977C22.7653 37.1074 22.6676 37.1123 22.5439 37.1123C22.2412 37.1123 22.0215 37.0049 21.8848 36.79C21.8132 36.6761 21.7627 36.515 21.7334 36.3066C21.5544 36.541 21.2972 36.7445 20.9619 36.917C20.6266 37.0895 20.2572 37.1758 19.8535 37.1758C19.3685 37.1758 18.9714 37.0293 18.6621 36.7363C18.3561 36.4401 18.2031 36.0706 18.2031 35.6279C18.2031 35.1429 18.3545 34.7669 18.6572 34.5C18.96 34.2331 19.3571 34.0687 19.8486 34.0068L21.25 33.8311ZM24.0381 31.7705H24.873V32.6738C24.9414 32.498 25.109 32.2848 25.376 32.0342C25.6429 31.7803 25.9505 31.6533 26.2988 31.6533C26.3151 31.6533 26.3428 31.6549 26.3818 31.6582C26.4209 31.6615 26.4876 31.668 26.582 31.6777V32.6055C26.5299 32.5957 26.4811 32.5892 26.4355 32.5859C26.3932 32.5827 26.346 32.5811 26.2939 32.5811C25.8512 32.5811 25.5111 32.7243 25.2734 33.0107C25.0358 33.2939 24.917 33.6211 24.917 33.9922V37H24.0381V31.7705Z" fill="#1D1D41"/>
</svg>
