<svg width="24" height="39" viewBox="0 0 24 39" fill="none" xmlns="http://www.w3.org/2000/svg">
<g clip-path="url(#clip0_171_4412)">
<g clip-path="url(#clip1_171_4412)">
<path d="M12 12C14.21 12 16 10.21 16 8C16 5.79 14.21 4 12 4C9.79 4 8 5.79 8 8C8 10.21 9.79 12 12 12ZM12 14C9.33 14 4 15.34 4 18V20H20V18C20 15.34 14.67 14 12 14Z" fill="#0A3323"/>
</g>
</g>
<path d="M1.85449 29.8271H5.08203C5.72005 29.8271 6.23438 30.0078 6.625 30.3691C7.01562 30.7272 7.21094 31.2318 7.21094 31.8828C7.21094 32.4427 7.03678 32.931 6.68848 33.3477C6.34017 33.7611 5.80469 33.9678 5.08203 33.9678H2.82617V37H1.85449V29.8271ZM6.22949 31.8877C6.22949 31.3604 6.03418 31.0023 5.64355 30.8135C5.42871 30.7126 5.13411 30.6621 4.75977 30.6621H2.82617V33.1475H4.75977C5.19596 33.1475 5.54915 33.0547 5.81934 32.8691C6.09277 32.6836 6.22949 32.3564 6.22949 31.8877ZM10.4922 31.6533C10.8633 31.6533 11.223 31.7412 11.5713 31.917C11.9196 32.0895 12.1849 32.3141 12.3672 32.5908C12.543 32.8545 12.6602 33.1621 12.7188 33.5137C12.7708 33.7546 12.7969 34.1387 12.7969 34.666H8.96387C8.98014 35.1966 9.10547 35.623 9.33984 35.9453C9.57422 36.2643 9.93717 36.4238 10.4287 36.4238C10.8877 36.4238 11.2539 36.2725 11.5273 35.9697C11.6836 35.7939 11.7943 35.5905 11.8594 35.3594H12.7236C12.7008 35.5514 12.6243 35.7663 12.4941 36.0039C12.3672 36.2383 12.224 36.4303 12.0645 36.5801C11.7975 36.8405 11.4671 37.0163 11.0732 37.1074C10.8617 37.1595 10.6224 37.1855 10.3555 37.1855C9.70443 37.1855 9.15267 36.9495 8.7002 36.4775C8.24772 36.0023 8.02148 35.3382 8.02148 34.4854C8.02148 33.6455 8.24935 32.9635 8.70508 32.4395C9.16081 31.9154 9.75651 31.6533 10.4922 31.6533ZM11.8936 33.9678C11.8577 33.5869 11.7747 33.2826 11.6445 33.0547C11.4036 32.6315 11.0016 32.4199 10.4385 32.4199C10.0348 32.4199 9.69629 32.5664 9.42285 32.8594C9.14941 33.1491 9.00456 33.5186 8.98828 33.9678H11.8936ZM13.9053 31.7705H14.7402V32.6738C14.8086 32.498 14.9762 32.2848 15.2432 32.0342C15.5101 31.7803 15.8177 31.6533 16.166 31.6533C16.1823 31.6533 16.21 31.6549 16.249 31.6582C16.2881 31.6615 16.3548 31.668 16.4492 31.6777V32.6055C16.3971 32.5957 16.3483 32.5892 16.3027 32.5859C16.2604 32.5827 16.2132 32.5811 16.1611 32.5811C15.7184 32.5811 15.3783 32.7243 15.1406 33.0107C14.903 33.2939 14.7842 33.6211 14.7842 33.9922V37H13.9053V31.7705ZM17.4307 30.9746C17.4437 30.61 17.5072 30.3431 17.6211 30.1738C17.8262 29.8743 18.2217 29.7246 18.8076 29.7246C18.863 29.7246 18.9199 29.7262 18.9785 29.7295C19.0371 29.7327 19.1038 29.7376 19.1787 29.7441V30.5449C19.0876 30.5384 19.0208 30.5352 18.9785 30.5352C18.9395 30.5319 18.902 30.5303 18.8662 30.5303C18.5993 30.5303 18.4398 30.6003 18.3877 30.7402C18.3356 30.877 18.3096 31.2285 18.3096 31.7949H19.1787V32.4883H18.2998V37H17.4307V32.4883H16.7031V31.7949H17.4307V30.9746ZM20.0234 30.8232V29.8271H20.9023V30.8232H20.0234ZM20.0234 31.7949H20.9023V37H20.0234V31.7949ZM22.2354 29.8271H23.1143V37H22.2354V29.8271Z" fill="#1D1D41"/>
<defs>
<clipPath id="clip0_171_4412">
<rect width="24" height="24" fill="white"/>
</clipPath>
<clipPath id="clip1_171_4412">
<rect width="24" height="24" fill="white"/>
</clipPath>
</defs>
</svg>
