<svg width="19" height="16" viewBox="0 0 19 16" fill="none" xmlns="http://www.w3.org/2000/svg">
<path d="M14.5 0L18.5 4L14.5 8V5H10.5V3H14.5V0ZM7.5 3C6.95 3 6.5 3.45 6.5 4C6.5 4.55 6.95 5 7.5 5C8.05 5 8.5 4.55 8.5 4C8.5 3.45 8.05 3 7.5 3ZM3.5 3C2.95 3 2.5 3.45 2.5 4C2.5 4.55 2.95 5 3.5 5C4.05 5 4.5 4.55 4.5 4C4.5 3.45 4.05 3 3.5 3ZM4.5 13H8.5V11H4.5V8L0.5 12L4.5 16V13ZM11.5 13C12.05 13 12.5 12.55 12.5 12C12.5 11.45 12.05 11 11.5 11C10.95 11 10.5 11.45 10.5 12C10.5 12.55 10.95 13 11.5 13ZM15.5 13C16.05 13 16.5 12.55 16.5 12C16.5 11.45 16.05 11 15.5 11C14.95 11 14.5 11.45 14.5 12C14.5 12.55 14.95 13 15.5 13Z" fill="#0A3323"/>
</svg>
